<?xml version="1.0" encoding="UTF-8"?>
<svg version="1.1" xmlns="http://www.w3.org/2000/svg" width="2172" height="724">
<path d="M0 0 C716.76 0 1433.52 0 2172 0 C2172 238.92 2172 477.84 2172 724 C1455.24 724 738.48 724 0 724 C0 485.08 0 246.16 0 0 Z " fill="#FEFDFD" transform="translate(0,0)"/>
<path d="M0 0 C10.39729042 4.34850496 16.51898698 13.12558746 23.03125 21.88916016 C24.86828032 24.31719022 26.80681109 26.65654155 28.75 29 C31.95145515 32.88106229 35.06808211 36.8170652 38.125 40.8125 C44.97752268 49.7664096 51.85009587 58.69562326 59.125 67.3125 C63.13414497 72.07772778 66.93078839 76.97146617 70.6875 81.9375 C75.04214994 87.6906772 79.51681821 93.28392562 84.22192383 98.75317383 C88.03670962 103.20155726 91.65985934 107.78275614 95.26171875 112.40429688 C99.50309543 117.84273833 103.86125338 123.17982874 108.25 128.5 C113.11814178 134.40130856 117.9221966 140.34155843 122.625 146.375 C126.28243248 151.06148584 130.02030139 155.66183087 133.875 160.1875 C134.32576904 160.71690186 134.77653809 161.24630371 135.2409668 161.79174805 C136.13437328 162.84038896 137.02784571 163.8889737 137.92138672 164.9375 C140.10801886 167.50906297 142.27848296 170.09262505 144.4375 172.6875 C145.17355469 173.56792969 145.90960937 174.44835937 146.66796875 175.35546875 C148.25 177.5 148.25 177.5 148.25 179.5 C148.91 179.5 149.57 179.5 150.25 179.5 C150.24308655 178.26920054 150.24308655 178.26920054 150.23603344 177.01353645 C150.12548221 157.02333448 150.04280841 137.03318539 149.99093914 117.04274178 C149.96518706 107.37538786 149.93009396 97.70823833 149.87280273 88.04101562 C149.82287587 79.61240589 149.79068721 71.18394423 149.77955753 62.75519073 C149.77305444 58.29455533 149.7578333 53.83434345 149.72134972 49.37384415 C149.68724323 45.16964248 149.67697633 40.96603609 149.68446159 36.76170921 C149.68309355 35.22427185 149.6732483 33.68681321 149.65397263 32.14949608 C149.53576184 22.22951852 150.24319355 13.98740523 157.19431591 6.36905098 C162.97447014 0.77958935 168.70483079 -1.58172644 176.6875 -1.9375 C185.24442654 -1.65384498 191.07986854 1.93131176 197.42578125 7.42578125 C202.86436431 13.60969475 203.83538684 18.44680254 203.75120544 26.45069885 C203.75950704 27.9295244 203.75950704 27.9295244 203.76797634 29.43822521 C203.78156155 32.73324514 203.76662473 36.02750484 203.75170898 39.32250977 C203.75549289 41.68816448 203.76099352 44.05381699 203.76808167 46.41946411 C203.78204323 52.83876345 203.77086163 59.25779497 203.75437045 65.67707944 C203.74023932 71.71318414 203.74613117 77.74928513 203.74950016 83.78540003 C203.75537483 95.74524271 203.74122208 107.70498001 203.71655273 119.66479492 C203.69262772 131.26509551 203.68555105 142.86525534 203.69604492 154.46557617 C203.70745816 167.10481245 203.7093796 179.74398368 203.69494683 192.38321918 C203.69342102 193.73129363 203.69190066 195.07936809 203.69038582 196.42744255 C203.689628 197.09068394 203.68887019 197.75392533 203.68808941 198.43726494 C203.68335013 203.10731241 203.68530431 207.7773135 203.68945122 212.44735909 C203.69422051 218.73386999 203.68412101 225.02018589 203.66249657 231.3066597 C203.65692816 233.61493332 203.65646388 235.92322567 203.66144943 238.23150063 C203.66739734 241.37997902 203.65490605 244.52786022 203.63768005 247.67628479 C203.64669512 249.04948477 203.64669512 249.04948477 203.65589231 250.45042616 C203.58057353 258.01026915 201.11763193 263.18533333 196.12890625 268.82421875 C188.40425629 275.71377142 179.65309361 276.80106302 169.734375 276.71875 C161.37722893 276.19408612 154.63347413 272.31643808 149.0625 266.125 C144.90694742 261.19888138 140.97103053 256.09269815 137.0078125 251.01171875 C134.63093462 247.97204182 132.20430514 244.9777143 129.75 242 C125.87005533 237.28863861 122.09630378 232.50195429 118.33813477 227.69360352 C115.49981471 224.06942453 112.6179162 220.48811011 109.6875 216.9375 C106.1099593 212.59379571 102.67078772 208.15989688 99.25927734 203.68505859 C95.32245541 198.54569464 91.23970259 193.53105178 87.14208984 188.51953125 C83.58141946 184.1584163 80.08287605 179.75540715 76.625 175.3125 C72.17520271 169.60527403 67.54955601 164.06942707 62.85546875 158.5625 C55.89048023 150.39051785 49.26698198 141.96985172 42.6953125 133.48144531 C37.25742796 126.47359088 31.69041896 119.57688645 26.06712341 112.71734619 C23.89266872 110.06396624 21.72034254 107.40884983 19.5480957 104.75366211 C18.33885185 103.27560341 18.33885185 103.27560341 17.10517883 101.76768494 C16.18686531 100.64518089 16.18686531 100.64518089 15.25 99.5 C15.24761165 100.28722222 15.24522329 101.07444445 15.24276257 101.88552189 C15.18360249 121.04864813 15.10804591 140.21164569 15.01428509 159.37463474 C14.96933742 168.64175338 14.92992036 177.90883369 14.90356445 187.17602539 C14.88057606 195.25419133 14.84716859 203.33223583 14.80129844 211.41030544 C14.77737757 215.6867944 14.75864135 219.96316317 14.75238609 224.23971748 C14.74633009 228.26742676 14.72631172 232.29482857 14.69572449 236.32242393 C14.68695251 237.79817697 14.68321994 239.27397019 14.68499184 240.74974823 C14.69369293 251.343512 13.74146166 257.90835957 7.25 266.5 C1.53140982 272.21859018 -5.90897626 274.72601264 -13.875 274.9375 C-22.01565759 274.60437846 -27.92054053 272.43356362 -33.80617619 266.67011929 C-42.83535484 256.58978455 -41.45394449 243.76987087 -41.38110352 231.11303711 C-41.38624707 228.84194887 -41.39353163 226.57086463 -41.40278625 224.29978943 C-41.42125147 218.15518593 -41.40839253 212.0110181 -41.38869596 205.86643291 C-41.37227003 199.4249122 -41.38112775 192.98341823 -41.38621521 186.54188538 C-41.39073142 175.7273055 -41.37500001 164.91292603 -41.34692383 154.09838867 C-41.31808357 142.98926601 -41.31100815 131.88039008 -41.32641602 120.77124023 C-41.3449966 107.35632226 -41.3432195 93.9416025 -41.32420158 80.52667427 C-41.31734152 75.41326408 -41.31835284 70.29994565 -41.32574654 65.18653679 C-41.3334248 59.1625479 -41.3212324 53.13891309 -41.29389763 47.11498451 C-41.28702928 44.90837022 -41.28689912 42.70172275 -41.29411316 40.49510956 C-41.30284663 37.4750626 -41.28678553 34.45609873 -41.2646637 31.43614197 C-41.27290446 30.57007369 -41.28114523 29.70400542 -41.28963572 28.81169266 C-41.16702985 19.69728982 -37.97192634 11.84938537 -31.7578125 5.19140625 C-28.45030494 2.4051207 -24.78125368 0.95322179 -20.75 -0.5 C-14.84295675 -3.45352162 -6.06077908 -1.94596443 0 0 Z " fill="#AC7DFB" transform="translate(1545.75,208.5)"/>
<path d="M0 0 C4.73708901 2.6418381 8.21818084 5.73379147 10.25 10.8125 C10.73095831 15.21662188 10.66641585 19.63482762 10.6875 24.0625 C10.72037109 25.26519531 10.75324219 26.46789062 10.78710938 27.70703125 C10.83056616 34.90505548 10.45652982 40.48206795 5.25 45.8125 C2.5234375 47.58984375 2.5234375 47.58984375 -0.375 48.75 C-7.12110941 51.8126509 -12.27494904 55.86437124 -17.75 60.8125 C-18.55566406 61.53566406 -19.36132812 62.25882812 -20.19140625 63.00390625 C-25.82285469 68.33043701 -29.9279448 74.08798183 -33.75 80.8125 C-34.21277344 81.61429687 -34.67554688 82.41609375 -35.15234375 83.2421875 C-44.09365042 99.82029408 -47.8410891 121.50355223 -42.75 139.8125 C-42.09588777 141.83676448 -41.37899248 143.80267537 -40.578125 145.7734375 C-40.00697491 147.17975989 -39.47794734 148.60367355 -38.984375 150.0390625 C-31.45711638 171.04695702 -14.42496136 187.91055352 5.25 197.8125 C11.04291187 200.32093274 16.88145057 202.14496065 23.08203125 203.3203125 C25.25 203.8125 25.25 203.8125 27.734375 204.84375 C41.57665105 208.65806607 58.94443006 206.76735841 72.25 201.8125 C74.10238281 201.17634766 74.10238281 201.17634766 75.9921875 200.52734375 C97.95353858 192.65975356 114.99276169 177.49377857 125.125 156.5 C131.14576659 143.44873274 134.10429475 131.30133892 133.25 116.8125 C133.20617188 115.760625 133.16234375 114.70875 133.1171875 113.625 C132.02021938 94.92884768 122.79443246 74.17508822 108.79882812 61.49804688 C102.49495001 56.15431 95.90524327 51.90881774 88.5625 48.109375 C83.73535999 45.40226269 80.75846613 41.65515435 78.25 36.8125 C77.64711252 32.68335823 77.78619154 28.54369485 77.8125 24.375 C77.79251953 23.25544922 77.77253906 22.13589844 77.75195312 20.98242188 C77.75660137 13.15012466 78.58930841 9.56766105 84.06640625 3.94921875 C84.64261719 3.47097656 85.21882813 2.99273437 85.8125 2.5 C86.39128906 2.00886719 86.97007812 1.51773438 87.56640625 1.01171875 C92.13961196 -2.24576188 97.90697596 -1.68730857 103.25 -1.1875 C106.79746818 -0.23970316 109.96783912 1.1790289 113.25 2.8125 C114.57837891 3.46605469 114.57837891 3.46605469 115.93359375 4.1328125 C145.19715478 19.32495908 168.55760336 47.80432441 179.3125 78.8828125 C182.62365591 89.67166218 185.7268859 100.48861834 186.25 111.8125 C186.34667969 113.6996875 186.34667969 113.6996875 186.4453125 115.625 C187.74212621 153.36660176 171.88801672 188.13598889 146.77734375 215.5078125 C132.11522689 230.71826869 114.61701815 240.82567414 95.25 248.8125 C94.14527344 249.3178125 93.04054688 249.823125 91.90234375 250.34375 C87.44617264 252.13575036 82.97247293 253.30484341 78.3125 254.4375 C77.45720703 254.6540625 76.60191406 254.870625 75.72070312 255.09375 C41.12947147 263.64261274 1.9599806 257.41312245 -28.72265625 239.671875 C-57.60405741 222.16799551 -80.6687312 195.24058131 -90.75 162.8125 C-91.08902344 161.8328125 -91.42804688 160.853125 -91.77734375 159.84375 C-101.65479734 129.06100306 -98.33338963 92.69614451 -83.81298828 63.95800781 C-78.72480017 54.14904469 -72.88191805 45.24867795 -65.75 36.8125 C-65.31961426 36.30235352 -64.88922852 35.79220703 -64.44580078 35.26660156 C-54.70135143 23.87097929 -43.68254949 14.43938816 -30.75 6.8125 C-29.95078125 6.31105469 -29.1515625 5.80960938 -28.328125 5.29296875 C-19.21955572 0.06244184 -10.21840562 -3.23582845 0 0 Z " fill="#8E8DFC" transform="translate(1274.75,227.1875)"/>
<path d="M0 0 C5.48717175 4.48342082 7.89961124 9.01295604 9 16 C9.28273864 21.07672932 9.25324264 26.14629183 9.22705078 31.22851562 C9.22648596 32.76662183 9.22680462 34.30472858 9.22793579 35.84283447 C9.22850752 39.99930074 9.21678245 44.1556506 9.20278788 48.31208992 C9.19025042 52.66292855 9.18910764 57.01377011 9.18673706 61.36462402 C9.18053113 69.59505402 9.16413236 77.82543062 9.14403808 86.05583715 C9.12165142 95.42947648 9.1106787 104.80311842 9.10064721 114.17677784 C9.07976532 133.45121545 9.04460665 152.72560343 9 172 C10.27083882 170.89158592 11.54116557 169.78258472 12.8112793 168.67333984 C13.51874802 168.05582855 14.22621674 167.43831726 14.9551239 166.80209351 C17.61862809 164.45481994 20.21464944 162.04481605 22.8125 159.625 C26.52388756 156.18991763 30.2928243 152.90383928 34.25 149.75 C39.80726576 145.28491364 44.92721137 140.41789427 50.09228516 135.51318359 C54.6378452 131.21805573 59.32148293 127.20947514 64.21484375 123.3125 C68.91642852 119.40879988 73.3218813 115.18734916 77.77734375 111.0078125 C80.81259018 108.16276199 83.91155117 105.4038352 87.0625 102.6875 C90.3221991 99.84840724 93.50742611 96.92635711 96.703125 94.015625 C103.89758257 87.70212142 109.69254971 86.34379408 119.26171875 86.625 C126.16978304 87.31797197 130.65026295 90.31834016 135.375 95.25 C139.50892041 100.54371475 141.71971215 107.1420436 141.41015625 113.8984375 C139.10267376 125.72153826 129.77918271 132.45053429 120.95703125 139.546875 C117.8735197 142.10492686 114.93027358 144.7702288 112 147.5 C108.33411173 150.91292672 104.6028559 154.18601581 100.6875 157.3125 C95.31069835 161.63426063 90.3014478 166.29406741 85.30151367 171.0402832 C81.6403211 174.5090656 77.91057409 177.8140499 74 181 C75.65734687 185.34921598 78.91151545 188.0913751 82.1875 191.25 C86.46568097 195.44385876 90.5800299 199.67304013 94.4609375 204.2421875 C96.0694055 206.07927024 97.75838868 207.78907787 99.5 209.5 C101.83123032 211.79015137 104.00968564 214.13455601 106.125 216.625 C109.40512486 220.43944384 112.92523854 223.96564274 116.5 227.5 C120.61973247 231.57327369 124.57701298 235.68974797 128.328125 240.109375 C130.29754029 242.33647079 132.38374342 244.41214954 134.5 246.5 C153.00062201 264.81216066 153.00062201 264.81216066 153.3125 276.1875 C153.20230338 283.09315467 151.64027168 288.03812351 147.01171875 293.23046875 C140.69912083 299.21598905 135.24958037 302.03878838 126.5625 302.4375 C114.254865 302.0295121 106.98600928 294.22164347 99.0078125 285.76025391 C95.9847549 282.52554984 92.99078096 279.26452498 90 276 C89.01319636 274.92692189 88.02622946 273.85399389 87.0390625 272.78125 C84.35354597 269.85948771 81.67712103 266.92945644 79 264 C78.06410739 262.98018848 77.12790516 261.96066102 76.19140625 260.94140625 C72.01931868 256.39955776 67.85788845 251.85021965 63.75 247.25 C59.08460808 242.04564584 54.29431642 236.96078858 49.49121094 231.88378906 C45.74732869 227.91372633 42.14340596 223.87238732 38.66259766 219.66845703 C36.89736563 217.89700392 35.28405017 216.98385073 33 216 C32.00033203 216.92619141 32.00033203 216.92619141 30.98046875 217.87109375 C25.16971333 223.21048719 19.26332103 228.33168602 13.1171875 233.28515625 C11.13793226 234.82726076 11.13793226 234.82726076 10 236 C9.87651137 239.08014289 9.81377737 242.1412568 9.7890625 245.22265625 C9.76097177 247.14258633 9.73230719 249.06250808 9.703125 250.98242188 C9.66201013 254.01488823 9.62513368 257.04720283 9.59863281 260.07983398 C9.57086144 263.00277146 9.52496452 265.92499698 9.4765625 268.84765625 C9.47330963 269.74380142 9.47005676 270.63994659 9.46670532 271.56324768 C9.29788052 280.29733975 6.96795813 286.75928197 0.97265625 293.23828125 C-5.14111247 298.69830045 -12.0828853 300.32307413 -20.08984375 300.20703125 C-28.57532069 299.60336645 -34.22274281 296.1306894 -40 290 C-44.83193946 283.6093704 -44.14707886 276.01193461 -44.14044189 268.35453796 C-44.14341302 267.28178724 -44.14638414 266.20903651 -44.1494453 265.10377818 C-44.15811748 261.50887481 -44.15963929 257.9140048 -44.16113281 254.3190918 C-44.16576197 251.74170867 -44.17078676 249.16432623 -44.17617798 246.58694458 C-44.18973668 239.58485451 -44.1957819 232.58277018 -44.20018864 225.58066916 C-44.20295469 221.2062167 -44.20719266 216.83176643 -44.21169281 212.45731544 C-44.22388125 200.33844358 -44.23418206 188.21957347 -44.2375679 176.10069561 C-44.23778747 175.32568863 -44.23800703 174.55068166 -44.23823325 173.75218963 C-44.23845153 172.97536604 -44.23866981 172.19854245 -44.2388947 171.39817876 C-44.23933816 169.82412763 -44.23978473 168.25007651 -44.24023438 166.67602539 C-44.2404558 165.89524751 -44.24067723 165.11446963 -44.24090537 164.31003181 C-44.24485355 151.6582412 -44.26231005 139.00650817 -44.2855939 126.35473981 C-44.30932274 113.35597146 -44.32177041 100.357232 -44.32293582 87.35844165 C-44.32385161 80.06383138 -44.32957989 72.7692962 -44.34775543 65.47470665 C-44.36479093 58.61369071 -44.36639762 51.75281939 -44.35761642 44.89178848 C-44.35684543 42.37513281 -44.36119696 39.85846952 -44.37107468 37.34183311 C-44.38377875 33.90318993 -44.37792524 30.46505273 -44.36749268 27.02641296 C-44.37554908 26.03340185 -44.38360548 25.04039074 -44.39190602 24.01728839 C-44.33075396 15.38385847 -42.76035062 7.96810752 -36.74609375 1.50390625 C-26.06855669 -7.69263015 -11.64795459 -6.85271403 0 0 Z " fill="#7487FC" transform="translate(975,183)"/>
<path d="M0 0 C1.23647278 -0.00018127 1.23647278 -0.00018127 2.4979248 -0.00036621 C17.78482229 0.0316163 32.14710512 0.92732235 46.18530273 7.45092773 C47.93044644 8.25636231 49.71311167 8.97948764 51.5 9.6875 C60.51722185 13.55800126 68.72766364 19.05225762 76.1875 25.375 C77.11175781 26.13039063 78.03601563 26.88578125 78.98828125 27.6640625 C96.80999757 42.96623656 106.69455953 62.62043054 111.1875 85.375 C111.36350739 86.06866165 111.53951477 86.7623233 111.72085571 87.477005 C112.41490082 91.78722436 112.36078485 96.06327885 112.38037109 100.42260742 C112.39263733 101.93579559 112.39263733 101.93579559 112.40515137 103.47955322 C112.42993345 106.81318579 112.44650323 110.14677598 112.4609375 113.48046875 C112.46626118 114.62182093 112.47158485 115.7631731 112.47706985 116.93911171 C112.50377046 122.9806412 112.52315509 129.02215025 112.53759766 135.0637207 C112.55093364 140.05414165 112.57878531 145.04415342 112.61962891 150.03442383 C112.66902413 156.0702782 112.69372714 162.10576161 112.70082474 168.14180946 C112.70752371 170.43623214 112.72271023 172.73064697 112.74671555 175.02495384 C112.77847335 178.24387748 112.7783874 181.46137958 112.77099609 184.68041992 C112.78740143 185.61843948 112.80380676 186.55645905 112.82070923 187.52290344 C112.7502631 195.06004201 110.58736496 201.55453508 105.5096035 207.26047039 C99.55754328 212.89990185 92.89987239 215.58315772 84.75 215.9375 C77.43659999 215.67264556 71.5580199 213.78836549 66.34375 208.5078125 C60.54448667 201.20187781 58.73966927 194.73125735 58.80273438 185.57519531 C58.7973616 184.61648529 58.79198883 183.65777527 58.78645325 182.67001343 C58.7767031 180.59720112 58.7737227 178.52434813 58.77680969 176.4515152 C58.78130505 173.16285396 58.76723706 169.87472595 58.74841309 166.58612061 C58.7116932 159.59908902 58.69793856 152.61211383 58.6875 145.625 C58.67539158 137.53796782 58.65368264 129.45119623 58.60749817 121.3642807 C58.59400403 118.13884527 58.59808559 114.91374567 58.60290527 111.68829346 C58.6542675 97.77034497 58.6542675 97.77034497 55.1875 84.375 C54.75050781 83.25867188 54.31351563 82.14234375 53.86328125 80.9921875 C47.03219568 67.25172311 37.53716764 59.46331949 23.6484375 53.19921875 C9.08978689 48.32322624 -8.89350433 48.19619614 -22.8515625 54.81640625 C-38.50279588 63.3552437 -48.58234842 75.34458907 -53.8125 92.375 C-54.90566329 97.55241619 -54.96392802 102.56869117 -54.97021484 107.83349609 C-54.97529556 108.76761826 -54.98037628 109.70174042 -54.98561096 110.66416931 C-54.99628167 112.68572438 -55.00491468 114.70729102 -55.01173019 116.72886276 C-55.02356322 119.93247302 -55.04302667 123.13595114 -55.06484985 126.33950806 C-55.12632322 135.44569487 -55.18050238 144.55186639 -55.21386719 153.65820312 C-55.2348464 159.23491633 -55.27017207 164.81138521 -55.31462479 170.38795853 C-55.32875449 172.50812526 -55.33750036 174.62833517 -55.34067917 176.7485466 C-55.34560428 179.71852851 -55.36880273 182.68786481 -55.39599609 185.65771484 C-55.39298996 186.526548 -55.38998383 187.39538116 -55.3868866 188.2905426 C-55.48480126 195.51520468 -56.98775482 202.3998286 -62.0546875 207.921875 C-68.82490992 213.5185922 -76.22287802 216.32472712 -84.98828125 215.83203125 C-92.06237606 214.68726072 -97.83740503 211.46579485 -102.8125 206.375 C-104.39764223 203.80110568 -105.65101918 201.16255396 -106.8125 198.375 C-107.15390518 197.69907806 -107.49531036 197.02315613 -107.84706116 196.32675171 C-109.19083402 192.21827412 -109.11561955 188.38165695 -109.11889648 184.08447266 C-109.12722 183.15508377 -109.13554352 182.22569489 -109.14411926 181.2681427 C-109.16822555 178.19173982 -109.17699949 175.11554989 -109.18359375 172.0390625 C-109.19257132 169.8817031 -109.20169336 167.72434429 -109.21095276 165.56698608 C-109.22745523 161.0325978 -109.23514312 156.49828335 -109.23803711 151.96386719 C-109.24337126 146.21858858 -109.28083779 140.47402986 -109.32678127 134.72895241 C-109.3569034 130.26211189 -109.36376845 125.79543577 -109.36476326 121.32850266 C-109.36890927 119.21508929 -109.38111033 117.10167275 -109.40228081 114.98836136 C-109.57307939 96.43547753 -108.03362067 76.89501377 -98.8125 60.375 C-98.39613281 59.51777344 -97.97976563 58.66054688 -97.55078125 57.77734375 C-84.81593577 32.41712138 -60.52313613 13.33194038 -33.8125 4.4375 C-31.49373925 3.70234744 -29.15911858 3.01568863 -26.8125 2.375 C-25.55050781 2.01019531 -24.28851562 1.64539063 -22.98828125 1.26953125 C-15.47465821 -0.34166524 -7.64968078 -0.01707942 0 0 Z " fill="#6297FC" transform="translate(769.8125,267.625)"/>
<path d="M0 0 C5.78346541 4.50432467 9.32336384 9.69102371 10.26979434 17.11684191 C10.36334737 19.39550938 10.36677697 21.65600139 10.33384705 23.93635559 C10.33345856 25.2335365 10.33345856 25.2335365 10.33306223 26.55692309 C10.32865961 29.43638187 10.30283554 32.31523911 10.27709961 35.19458008 C10.26970004 37.2665514 10.26368835 39.33852807 10.25895691 41.4105072 C10.24610685 45.8641416 10.22403422 50.31760072 10.19492912 54.77115822 C10.14950083 61.81923434 10.12818256 68.86725762 10.11073303 75.91545105 C10.06370889 93.42235174 9.98641864 110.92910376 9.90020752 128.43585205 C9.83345479 142.04235489 9.77569315 155.64876294 9.74565703 169.25540274 C9.72919026 176.25562722 9.69398373 183.25542579 9.64447963 190.2554909 C9.61774368 194.61868087 9.60781993 198.98179293 9.60244942 203.34505653 C9.59658069 205.36101032 9.58384504 207.37695825 9.56355286 209.39281845 C9.46368252 219.67614574 9.41248712 228.54315042 14 238 C14.33 238.99 14.66 239.98 15 241 C16.86850747 242.10891763 16.86850747 242.10891763 19 243 C20.093125 243.680625 21.18625 244.36125 22.3125 245.0625 C26.38050442 247.15002858 30.02457064 247.31615108 34.5625 247.5 C42.69716808 247.87122493 46.66449941 249.29422455 52.25 255.3125 C56.9315134 261.23323754 58.59699954 266.66149355 58.33984375 274.16015625 C57.39063408 282.09205772 54.37529962 287.42320218 48.29296875 292.52734375 C41.17708431 297.09751144 35.34185711 297.51752981 27 297.4375 C25.88512207 297.42847656 24.77024414 297.41945313 23.62158203 297.41015625 C4.6952823 297.01454191 -11.91289736 290.26261108 -25.34375 276.859375 C-36.79455679 264.53291828 -44.50724355 250.1955651 -44.38768005 233.15756226 C-44.39306559 232.21952904 -44.39845113 231.28149583 -44.40399987 230.31503737 C-44.41820514 227.19995956 -44.4111942 224.08531117 -44.40405273 220.97021484 C-44.40976004 218.72558757 -44.4167257 216.48096321 -44.42485046 214.23634338 C-44.44275332 208.16010385 -44.4416193 202.08400895 -44.43590808 196.00775099 C-44.43281325 190.93046712 -44.43891171 185.85321092 -44.44494683 180.775931 C-44.45978129 168.11522056 -44.45618636 155.45459707 -44.44408352 142.79389317 C-44.43414439 131.81000699 -44.44710758 120.82628909 -44.47101771 109.84242885 C-44.49542097 98.54645522 -44.50461453 87.25055792 -44.49836498 75.95455134 C-44.49499466 69.61966607 -44.4974162 63.28491997 -44.51461601 56.95005417 C-44.53007797 50.99587731 -44.52613758 45.04202231 -44.50731087 39.0878582 C-44.50362351 36.90458297 -44.50673768 34.72128392 -44.51719666 32.53803062 C-44.53039725 29.55447298 -44.51886691 26.57198245 -44.50120544 23.58847046 C-44.51081045 22.72756723 -44.52041546 21.866664 -44.53031152 20.97967279 C-44.44282563 13.78187584 -42.33818145 8.6379483 -37.5625 3.25 C-36.2940625 2.13625 -36.2940625 2.13625 -35 1 C-34.21625 0.278125 -33.4325 -0.44375 -32.625 -1.1875 C-22.85439052 -7.93387321 -9.43246982 -6.56460114 0 0 Z " fill="#49B9FD" transform="translate(469,183)"/>
<path d="M0 0 C5.96136755 4.03871275 10.0001678 8.21179896 12.875 14.875 C13.25531673 18.30277634 13.25531673 18.30277634 13.26268005 22.13494873 C13.26806559 22.84355773 13.27345113 23.55216673 13.27899987 24.28224874 C13.29325108 26.64505076 13.28618292 29.00729028 13.27905273 31.37011719 C13.28475795 33.0690455 13.2917228 34.76796998 13.29985046 36.46688843 C13.31778426 41.07455097 13.31661258 45.68202309 13.31090808 50.28971004 C13.30781529 54.14134121 13.31390998 57.99293585 13.31994683 61.84456182 C13.33399236 70.93611904 13.33243168 80.02758231 13.32104492 89.11914062 C13.30957488 98.48383684 13.32362055 107.84824629 13.3504414 117.21290469 C13.37263313 125.26409121 13.37922762 133.31518795 13.37336498 141.36640286 C13.37000115 146.1700052 13.37237175 150.97342393 13.38961601 155.77700043 C13.40513753 160.29809074 13.40107212 164.81875838 13.38231087 169.33983231 C13.37863876 170.9933451 13.38169301 172.64688956 13.39219666 174.30037308 C13.45065609 184.26914368 13.26582992 193.33694196 6.796875 201.49609375 C-0.65082369 207.72483456 -6.48409208 210.52657763 -16.31640625 210.2265625 C-23.66095803 209.30721666 -30.0357951 206.20654799 -35.125 200.875 C-39.03101773 194.58266919 -40.24528239 189.28681907 -40.28562927 181.89352417 C-40.29071709 181.19070757 -40.29580491 180.48789097 -40.30104691 179.7637769 C-40.3167426 177.40876333 -40.32528885 175.05378039 -40.33374023 172.69873047 C-40.34328109 171.00995185 -40.35317236 169.32117518 -40.36338806 167.63240051 C-40.39474855 162.08568637 -40.4150382 156.53895735 -40.43359375 150.9921875 C-40.43689107 150.04771208 -40.44018839 149.10323667 -40.44358563 148.13014078 C-40.47436699 139.21857396 -40.50106742 130.3070037 -40.51800442 121.39539909 C-40.53990218 110.00825694 -40.58185948 98.6215868 -40.65144199 87.23463333 C-40.69873873 79.22172653 -40.72294559 71.20894683 -40.7302013 63.19590485 C-40.73514921 58.41335309 -40.75014785 53.6313336 -40.7899456 48.84893417 C-40.82692554 44.34583705 -40.83518469 39.84357372 -40.82193947 35.34035301 C-40.82199323 33.69325734 -40.83221318 32.04612364 -40.8536911 30.39916801 C-40.9706982 20.91515379 -40.48043665 13.49954928 -34.125 5.875 C-31.75 3.5 -31.75 3.5 -29.125 1.875 C-28.62097656 1.50632812 -28.11695313 1.13765625 -27.59765625 0.7578125 C-20.05319621 -4.02970043 -7.85165689 -4.11912051 0 0 Z " fill="#58ABFD" transform="translate(601.125,273.125)"/>
<path d="M0 0 C5.56889646 3.51892867 8.75889063 7.82637313 11 14 C11.55848236 17.713968 11.55762995 21.37183564 11.53344727 25.12255859 C11.54637062 26.75344673 11.54637062 26.75344673 11.55955505 28.4172821 C11.58216992 31.99457936 11.57548325 35.57109029 11.56640625 39.1484375 C11.57164422 41.64653759 11.57792134 44.1446357 11.58518982 46.64273071 C11.5969153 52.5415758 11.58734295 58.4401416 11.57078546 64.33896697 C11.55985678 69.02823305 11.57195679 73.71704556 11.59692383 78.40625 C11.6310623 84.89301814 11.64056454 91.37932168 11.6301403 97.86616898 C11.62932264 100.33081632 11.6361504 102.79547897 11.65091133 105.26008224 C11.66842279 108.71346896 11.65375701 112.1653258 11.63110352 115.61865234 C11.64279572 116.62676468 11.65448792 117.63487701 11.66653442 118.67353821 C11.56352914 126.43098769 9.57120614 133.07427414 4.2588129 138.9140377 C-0.528399 143.37791287 -5.82648508 146.10284844 -12.4375 146.375 C-19.99244198 146.07948356 -25.64118453 143.35881547 -31 138 C-34.52289088 132.99141712 -36.11773105 128.47927229 -36.14044189 122.40351868 C-36.14615204 121.48546951 -36.15186218 120.56742035 -36.15774536 119.62155151 C-36.15886322 118.62149078 -36.15998108 117.62143005 -36.16113281 116.59106445 C-36.16609772 115.53204422 -36.17106262 114.47302399 -36.17617798 113.38191223 C-36.19079144 109.8756953 -36.19760087 106.36952364 -36.203125 102.86328125 C-36.20887785 100.42433165 -36.21463557 97.98538207 -36.22039795 95.5464325 C-36.23090612 90.42947173 -36.23674976 85.31252667 -36.24023438 80.19555664 C-36.2457136 73.64981008 -36.26973043 67.10427211 -36.29820633 60.55859089 C-36.31686371 55.51844179 -36.32204001 50.47834257 -36.32357025 45.43816185 C-36.32659113 43.02571665 -36.33460051 40.6132722 -36.34775543 38.20086098 C-36.3648776 34.81905049 -36.36292017 31.43774487 -36.35644531 28.0559082 C-36.3656601 27.06596863 -36.37487488 26.07602905 -36.3843689 25.05609131 C-36.33362162 16.56216271 -34.83266818 8.87713354 -28.86328125 2.5078125 C-20.25572891 -4.45762818 -9.71823958 -4.63189476 0 0 Z " fill="#8EA4FC" transform="translate(1332,182)"/>
<path d="M0 0 C7.84467188 2.92513189 13.42655334 8.21268505 17.6875 15.375 C20.68125298 22.72330277 20.75237634 30.21475601 18 37.625 C13.70472706 47.07164839 8.12791177 50.38847123 -1.3125 54.375 C-7.77909853 56.3610851 -15.05865651 55.92511094 -21.3125 53.375 C-28.74512116 48.93473282 -34.35300911 43.21494572 -36.8046875 34.7890625 C-38.71783427 25.69425709 -36.85723119 17.55221539 -32.25 9.5234375 C-28.94557687 5.04869784 -24.18018947 2.7753734 -19.3125 0.375 C-14.07295831 -2.24477084 -5.65936966 -1.11831855 0 0 Z " fill="#4FA5FD" transform="translate(597.3125,189.625)"/>
<path d="M0 0 C5.1653151 3.61572057 9.45063668 7.35976696 11.2265625 13.55859375 C11.45508501 16.66839216 11.41550402 19.75517419 11.3515625 22.87109375 C11.34253906 23.70705078 11.33351563 24.54300781 11.32421875 25.40429688 C11.30077239 27.45585344 11.26490516 29.50726152 11.2265625 31.55859375 C10.8965625 31.55859375 10.5665625 31.55859375 10.2265625 31.55859375 C10.0821875 30.42421875 9.9378125 29.28984375 9.7890625 28.12109375 C9.61484772 24.75082174 9.61484772 24.75082174 8.2265625 23.55859375 C7.99463385 22.04389927 7.81441012 20.52104813 7.6640625 18.99609375 C7.58027344 18.16980469 7.49648438 17.34351563 7.41015625 16.4921875 C7.34957031 15.85410156 7.28898437 15.21601563 7.2265625 14.55859375 C6.6284375 14.41421875 6.0303125 14.26984375 5.4140625 14.12109375 C3.66505846 13.67134985 1.93979227 13.12967034 0.2265625 12.55859375 C0.2265625 11.89859375 0.2265625 11.23859375 0.2265625 10.55859375 C-2.42572562 9.48334181 -5.05712204 8.46403224 -7.7734375 7.55859375 C-8.1034375 6.89859375 -8.4334375 6.23859375 -8.7734375 5.55859375 C-16.27269409 3.4141575 -26.51982848 1.93178924 -33.7734375 5.55859375 C-32.49512317 1.58161584 -30.09219018 0.30750768 -26.625 -1.609375 C-18.12488409 -5.42904734 -7.94814985 -4.56953892 0 0 Z " fill="#3667FD" transform="translate(466.7734375,181.44140625)"/>
<path d="M0 0 C0.97549805 0.22913086 0.97549805 0.22913086 1.97070312 0.46289062 C6.23618479 1.56295878 8.37294552 2.98581964 11.3125 6.1875 C13.63896472 7.48690822 13.63896472 7.48690822 16.0625 8.4375 C17.26132812 8.94023437 17.26132812 8.94023437 18.484375 9.453125 C19.08765625 9.69546875 19.6909375 9.9378125 20.3125 10.1875 C20.6425 8.8675 20.9725 7.5475 21.3125 6.1875 C24.55977345 11.45473095 24.68584093 15.58699939 24.5 21.5625 C24.47969727 22.80966797 24.47969727 22.80966797 24.45898438 24.08203125 C24.42389059 26.11747066 24.37009228 28.15257291 24.3125 30.1875 C23.9825 30.1875 23.6525 30.1875 23.3125 30.1875 C23.168125 29.053125 23.02375 27.91875 22.875 26.75 C22.70078522 23.37972799 22.70078522 23.37972799 21.3125 22.1875 C21.08057135 20.67280552 20.90034762 19.14995438 20.75 17.625 C20.66621094 16.79871094 20.58242188 15.97242188 20.49609375 15.12109375 C20.43550781 14.48300781 20.37492187 13.84492188 20.3125 13.1875 C19.714375 13.043125 19.11625 12.89875 18.5 12.75 C16.75099596 12.3002561 15.02572977 11.75857659 13.3125 11.1875 C13.3125 10.5275 13.3125 9.8675 13.3125 9.1875 C10.66021188 8.11224806 8.02881546 7.09293849 5.3125 6.1875 C4.9825 5.5275 4.6525 4.8675 4.3125 4.1875 C-3.18675659 2.04306375 -13.43389098 0.56069549 -20.6875 4.1875 C-16.58660075 -5.72300652 -8.64506513 -2.19404585 0 0 Z " fill="#3883FD" transform="translate(453.6875,182.8125)"/>
<path d="M0 0 C1.65 1.65 3.3 3.3 5 5 C4.01 5.33 3.02 5.66 2 6 C1.67 54.84 1.34 103.68 1 154 C0.67 154 0.34 154 0 154 C0 103.18 0 52.36 0 0 Z " fill="#F1E6FE" transform="translate(1560,307)"/>
<path d="M0 0 C10.68158822 0.07443615 16.90719796 2.64439294 24.84765625 9.83203125 C26.1171875 11.265625 26.1171875 11.265625 26.1171875 13.265625 C25.1271875 13.595625 24.1371875 13.925625 23.1171875 14.265625 C21.6171875 13.015625 21.6171875 13.015625 20.1171875 11.265625 C20.1171875 9.945625 20.1171875 8.625625 20.1171875 7.265625 C15.9870132 5.36797735 13.07318675 5.27940816 8.6796875 5.890625 C3.10582844 6.56832098 0.59638064 5.55036664 -3.8828125 2.265625 C-1.8828125 0.265625 -1.8828125 0.265625 0 0 Z " fill="#4671FD" transform="translate(585.8828125,188.734375)"/>
<path d="M0 0 C0.66 0.33 1.32 0.66 2 1 C-0.13726738 3.243467 -2.37325151 5.05297185 -4.875 6.875 C-12.53138758 12.74908096 -19.04337899 19.94278693 -25.765625 26.8359375 C-28 29 -28 29 -30 30 C-24.86188106 17.85796475 -10.35417733 7.60969659 0 0 Z M-31 30 C-31 33 -31 33 -32 35 C-32.66 35 -33.32 35 -34 35 C-32.125 31.125 -32.125 31.125 -31 30 Z " fill="#8DB3FC" transform="translate(1237,238)"/>
<path d="M0 0 C10.44840841 8.66995592 19.37995109 18.55145586 28 29 C27.01 29.33 26.02 29.66 25 30 C25 29.01 25 28.02 25 27 C24.34 27 23.68 27 23 27 C21.63360658 25.3603279 20.3050581 23.68889872 19 22 C18.401875 21.401875 17.80375 20.80375 17.1875 20.1875 C15.21000656 18.21000656 13.39128151 16.17628642 11.5625 14.0625 C8.28220934 10.28349278 4.85122757 6.7235567 1.1875 3.3125 C0 2 0 2 0 0 Z " fill="#8B76FB" transform="translate(1098,419)"/>
<path d="M0 0 C1.75570313 0.01353516 1.75570313 0.01353516 3.546875 0.02734375 C4.43890625 0.03894531 5.3309375 0.05054688 6.25 0.0625 C6.25 0.7225 6.25 1.3825 6.25 2.0625 C4.93 2.3925 3.61 2.7225 2.25 3.0625 C2.58 4.0525 2.91 5.0425 3.25 6.0625 C1.28964825 5.61287804 -0.66824309 5.15251752 -2.625 4.6875 C-3.71554687 4.43226563 -4.80609375 4.17703125 -5.9296875 3.9140625 C-8.75 3.0625 -8.75 3.0625 -10.75 1.0625 C-7.14006828 -0.07230527 -3.7657673 -0.03765767 0 0 Z " fill="#4076FC" transform="translate(452.75,177.9375)"/>
<path d="M0 0 C0.99 0.66 1.98 1.32 3 2 C1.730447 2.64834654 0.45930294 3.29357815 -0.8125 3.9375 C-1.52019531 4.29714844 -2.22789063 4.65679687 -2.95703125 5.02734375 C-6.60076892 6.76212516 -9.50588273 7.16065781 -13.5 7.1875 C-14.93859375 7.20876953 -14.93859375 7.20876953 -16.40625 7.23046875 C-19 7 -19 7 -22 5 C-20.83082031 4.86722656 -19.66164063 4.73445313 -18.45703125 4.59765625 C-16.90884161 4.41937987 -15.36066522 4.24098839 -13.8125 4.0625 C-13.04357422 3.97548828 -12.27464844 3.88847656 -11.48242188 3.79882812 C-7.61227172 3.35035579 -3.80813376 2.8470999 0 2 C0 1.34 0 0.68 0 0 Z " fill="#997FFB" transform="translate(1115,478)"/>
<path d="M0 0 C6.83389046 0.54671124 10.67894902 2.61943489 15.4375 7.5 C17 10 17 10 16.75 12.3125 C16.5025 12.869375 16.255 13.42625 16 14 C15.4225 12.88625 14.845 11.7725 14.25 10.625 C12.52487445 7.63317387 11.42770515 6.00814857 8 5 C6.00889599 4.61709538 4.00899487 4.27395385 2 4 C2 3.01 2 2.02 2 1 C1.34 0.67 0.68 0.34 0 0 Z " fill="#6F69FC" transform="translate(964,180)"/>
<path d="M0 0 C0.66 0.99 1.32 1.98 2 3 C1.42578125 4.9453125 1.42578125 4.9453125 0.3125 7.125 C-1.59150328 11.03523493 -2.98681252 14.87976017 -4.19140625 19.0546875 C-5.10485561 21.25226132 -6.22765108 22.43876189 -8 24 C-6.5102402 15.50836915 -3.31428738 7.9105161 0 0 Z " fill="#92B4FC" transform="translate(1190,293)"/>
<path d="M0 0 C6.31803372 1.29600692 10.69371586 5.40663025 15 10 C15 10.66 15 11.32 15 12 C14.01 12.33 13.02 12.66 12 13 C10.5 11.75 10.5 11.75 9 10 C9 8.68 9 7.36 9 6 C7.63875 5.5978125 7.63875 5.5978125 6.25 5.1875 C3.28528037 4.10423706 1.3830246 3.01640543 -1 1 C-0.67 0.67 -0.34 0.34 0 0 Z " fill="#4A7DFD" transform="translate(597,190)"/>
<path d="M0 0 C0.33 0 0.66 0 1 0 C1 5.94 1 11.88 1 18 C0.67 18 0.34 18 0 18 C-0.144375 16.865625 -0.28875 15.73125 -0.4375 14.5625 C-0.61171478 11.19222799 -0.61171478 11.19222799 -2 10 C-2.45459858 7.34536879 -2.70243238 4.67810862 -3 2 C-2.34 2 -1.68 2 -1 2 C-0.67 1.34 -0.34 0.68 0 0 Z " fill="#3690FE" transform="translate(477,195)"/>
<path d="M0 0 C2.66666667 0 5.33333333 0 8 0 C7.443125 0.4125 6.88625 0.825 6.3125 1.25 C4.63388406 2.52030395 2.99217853 3.83985123 1.375 5.1875 C-1 7 -1 7 -3 7 C-2.38722388 4.03824877 -1.74627478 2.61941217 0 0 Z " fill="#3BA8FD" transform="translate(432,185)"/>
<path d="M0 0 C0.33 0.99 0.66 1.98 1 3 C-0.328125 5.62890625 -0.328125 5.62890625 -2.25 8.5625 C-3.18585938 10.01849609 -3.18585938 10.01849609 -4.140625 11.50390625 C-6 14 -6 14 -9 16 C-7.56691865 12.04093183 -5.66858051 8.71281819 -3.375 5.1875 C-2.74335937 4.21167969 -2.11171875 3.23585938 -1.4609375 2.23046875 C-0.73777344 1.12638672 -0.73777344 1.12638672 0 0 Z " fill="#8CB2FC" transform="translate(1202,273)"/>
<path d="M0 0 C0.66 0.33 1.32 0.66 2 1 C0.34387276 4.31225448 -2.64497931 4.76982575 -6 6 C-8.9375 6.1875 -8.9375 6.1875 -11 6 C-7.57874946 3.12614955 -4.16111563 1.54115394 0 0 Z " fill="#79ABFC" transform="translate(731,274)"/>
<path d="M0 0 C4.95 0.99 4.95 0.99 10 2 C10 2.66 10 3.32 10 4 C8.72125 3.896875 7.4425 3.79375 6.125 3.6875 C5.04605469 3.60048828 5.04605469 3.60048828 3.9453125 3.51171875 C2 3 2 3 0 0 Z " fill="#9887FA" transform="translate(1268,475)"/>
<path d="M0 0 C0.66 0.66 1.32 1.32 2 2 C1.319375 2.804375 1.319375 2.804375 0.625 3.625 C-1.21688312 6.31698302 -2.07971933 8.88520388 -3 12 C-3.66 12 -4.32 12 -5 12 C-4.42365861 7.24518354 -2.44931479 4.02951788 0 0 Z " fill="#66B7FC" transform="translate(566,280)"/>
<path d="M0 0 C-6.625 3.875 -6.625 3.875 -10 5 C-9 2 -9 2 -6.125 0.25 C-3 -1 -3 -1 0 0 Z " fill="#9B7CFA" transform="translate(1367,423)"/>
<path d="M0 0 C4.43090471 1.20842856 6.98112756 2.51668565 10 6 C6.08406554 5.21681311 2.63593365 3.60820142 -1 2 C-0.67 1.34 -0.34 0.68 0 0 Z " fill="#627EFC" transform="translate(597,190)"/>
<path d="M0 0 C0.99 0.33 1.98 0.66 3 1 C3 1.66 3 2.32 3 3 C3.66 3 4.32 3 5 3 C6.625 4.375 6.625 4.375 8 6 C8 6.66 8 7.32 8 8 C4.63820226 6.55922954 2.40843732 4.75249979 0 2 C0 1.34 0 0.68 0 0 Z " fill="#7D72F9" transform="translate(1055,446)"/>
<path d="M0 0 C0 0.66 0 1.32 0 2 C-3.4019487 4.09350689 -6.05272412 4.17942163 -10 4 C-7.25346796 1.25346796 -3.91404908 0 0 0 Z " fill="#9F7EFB" transform="translate(1373,473)"/>
<path d="M0 0 C2.95409701 1.37154504 5.44008376 2.98863724 8 5 C7.67 5.99 7.34 6.98 7 8 C5.83035398 6.8572081 4.66435444 5.71068285 3.5 4.5625 C2.8503125 3.92441406 2.200625 3.28632813 1.53125 2.62890625 C0 1 0 1 0 0 Z " fill="#5F72FC" transform="translate(844,293)"/>
<path d="M0 0 C2.31 0.33 4.62 0.66 7 1 C7 1.66 7 2.32 7 3 C7.66 3 8.32 3 9 3 C9 3.66 9 4.32 9 5 C5.54074837 3.7508258 2.85306797 2.32472205 0 0 Z " fill="#A3AAFC" transform="translate(1366,276)"/>
<path d="M0 0 C0.99 0.33 1.98 0.66 3 1 C1.1875 3 1.1875 3 -1 5 C-1.99 5 -2.98 5 -4 5 C-2.25 1.125 -2.25 1.125 0 0 Z " fill="#6E77FC" transform="translate(942,182)"/>
<path d="M0 0 C2.88437779 1.29299694 4.87219421 2.65941363 7 5 C6.67 5.99 6.34 6.98 6 8 C5.34 8 4.68 8 4 8 C3.71125 7.236875 3.4225 6.47375 3.125 5.6875 C2.03730987 2.84970692 2.03730987 2.84970692 0 0 Z " fill="#3359FD" transform="translate(467,183)"/>
</svg>
